<svg xmlns="http://www.w3.org/2000/svg" xmlns:xlink="http://www.w3.org/1999/xlink" width="1366" zoomAndPan="magnify" viewBox="0 0 1024.5 166.499995" height="222" preserveAspectRatio="xMidYMid meet" version="1.0"><defs><filter x="0%" y="0%" width="100%" height="100%" id="99d79ea6b3"><feColorMatrix values="0 0 0 0 1 0 0 0 0 1 0 0 0 0 1 0 0 0 1 0" color-interpolation-filters="sRGB"/></filter><clipPath id="5bed1530ad"><path d="M 1.285156 0 L 1022.71875 0 L 1022.71875 166 L 1.285156 166 Z M 1.285156 0 " clip-rule="nonzero"/></clipPath><mask id="7d614996ba"><g filter="url(#99d79ea6b3)"><rect x="-102.45" width="1229.4" fill="#000000" y="-16.649999" height="199.799994" fill-opacity="0.22"/></g></mask><clipPath id="04d27b289e"><path d="M 0.285156 0 L 1020.867188 0 L 1020.867188 166 L 0.285156 166 Z M 0.285156 0 " clip-rule="nonzero"/></clipPath><clipPath id="78a75150ca"><path d="M 69.320312 166 L 951.832031 166 L 1020.867188 0 L 0.285156 0 Z M 69.320312 166 " clip-rule="nonzero"/></clipPath><clipPath id="30725d0da6"><rect x="0" width="1022" y="0" height="166"/></clipPath></defs><g clip-path="url(#5bed1530ad)"><g mask="url(#7d614996ba)"><g transform="matrix(1, 0, 0, 1, 1, 0)"><g clip-path="url(#30725d0da6)"><g clip-path="url(#04d27b289e)"><g clip-path="url(#78a75150ca)"><path fill="#5271ff" d="M 0.285156 0 L 1020.867188 0 L 1020.867188 166 L 0.285156 166 Z M 0.285156 0 " fill-opacity="1" fill-rule="nonzero"/></g></g></g></g></g></g></svg>